<!-- Generated by IcoMoon.io -->
<svg version="1.1" xmlns="http://www.w3.org/2000/svg" width="128" height="128" viewBox="0 0 128 128">
<title>keyboard</title>
<path fill="#fff" d="M101.25 53.25v-10.5h-10.5v10.5h10.5zM101.25 69.25v-10.5h-10.5v10.5h10.5zM85.25 53.25v-10.5h-10.5v10.5h10.5zM85.25 69.25v-10.5h-10.5v10.5h10.5zM85.25 90.75v-10.75h-42.5v10.75h42.5zM37.25 53.25v-10.5h-10.5v10.5h10.5zM37.25 69.25v-10.5h-10.5v10.5h10.5zM42.75 58.75v10.5h10.5v-10.5h-10.5zM42.75 42.75v10.5h10.5v-10.5h-10.5zM58.75 58.75v10.5h10.5v-10.5h-10.5zM58.75 42.75v10.5h10.5v-10.5h-10.5zM106.75 26.75c5.75 0 10.5 4.75 10.5 10.5v53.5c0 5.75-4.75 10.5-10.5 10.5h-85.5c-5.75 0-10.5-4.75-10.5-10.5v-53.5c0-5.75 4.75-10.5 10.5-10.5h85.5z"></path>
</svg>
